#!OML:ASF F:\VICON\USERDATA\INSTALL\Justin_Nancy\Justin_Nancy.ASF
:FULLY-SPECIFIED
:DEGREES
192
root -0.224319 17.7372 30.1403 0.510342 0.177218 -1.45814
lowerback 6.4439 0.673559 0.827149
upperback -0.801402 1.10876 3.24599
thorax -4.49873 0.571563 2.7901
lowerneck -17.4838 -3.94395 -10.4928
upperneck 18.8355 -3.96776 6.18065
head 9.14561 -1.95037 3.3415
rclavicle 1.83876e-015 -3.10104e-014
rhumerus -35.0677 -18.0512 -75.0953
rradius 36.997
rwrist 9.00656
rhand -16.3018 15.5367
rfingers 7.12502
rthumb 9.909 -14.2101
lclavicle 1.83876e-015 -3.10104e-014
lhumerus -40.6096 13.6062 83.1841
lradius 42.1891
lwrist 1.28945
lhand -16.9574 25.6838
lfingers 7.12502
lthumb 9.27648 55.4598
rfemur -11.0062 1.5746 19.4721
rtibia 38.4492
rfoot -8.93402 2.91394
rtoes -0.694809
lfemur -16.8702 -1.11766 -21.1483
ltibia 36.066
lfoot -6.13006 1.75877
ltoes -10.8623
193
root -0.219773 17.7207 30.1718 0.550431 0.177662 -1.55595
lowerback 6.38541 0.694919 0.846646
upperback -0.758654 1.13514 3.2339
thorax -4.42161 0.583596 2.76405
lowerneck -17.443 -3.92065 -10.4755
upperneck 18.8428 -3.94872 6.19813
head 9.13885 -1.93905 3.34779
rclavicle -1.02126e-014 -8.74653e-015
rhumerus -35.1499 -18.4146 -74.9049
rradius 36.0936
rwrist 9.38346
rhand -16.274 15.7564
rfingers 7.12502
rthumb 9.93578 -13.9892
lclavicle -1.02126e-014 -8.74653e-015
lhumerus -40.4305 13.0924 83.3648
lradius 43.8933
lwrist 1.36293
lhand -16.0714 27.3659
lfingers 7.12502
lthumb 10.1313 57.1019
rfemur -11.1001 1.46889 19.5397
rtibia 38.6565
rfoot -9.42911 2.70131
rtoes -0.77911
lfemur -16.771 -0.903163 -21.0437
ltibia 36.1185
lfoot -6.45516 1.55658
ltoes -11.0002
194
root -0.21782 17.7063 30.1989 0.658598 0.267394 -1.34668
lowerback 6.22497 0.692035 0.528423
upperback -0.679819 1.09751 3.1801
thorax -4.25208 0.571023 2.89223
lowerneck -17.5818 -3.9146 -10.5339
upperneck 18.8304 -3.90988 6.20638
head 9.15772 -1.92179 3.36449
rclavicle -2.98177e-016 -9.54166e-015
rhumerus -35.0922 -18.8428 -74.6598
rradius 35.2278
rwrist 9.83933
rhand -16.3148 16.0195
rfingers 7.12502
rthumb 9.89649 -13.7279
lclavicle -2.98177e-016 -9.54166e-015
lhumerus -40.2223 12.6217 83.6657
lradius 45.5765
lwrist 2.10075
lhand -16.0707 27.0951
lfingers 7.12502
lthumb 10.1319 56.8311
rfemur -11.2698 1.27749 19.269
rtibia 38.8039
rfoot -9.99122 2.37376
rtoes -1.70962
lfemur -16.7412 -0.755874 -21.2763
ltibia 36.1023
lfoot -6.7117 1.35202
ltoes -10.7544
195
root -0.214143 17.6938 30.2213 0.687968 0.414776 -1.17731
lowerback 6.35219 0.64215 0.31203
upperback -0.736765 1.01613 3.11435
thorax -4.38179 0.535934 2.95334
lowerneck -17.4541 -3.87186 -10.6393
upperneck 18.7836 -3.8599 6.32048
head 9.11822 -1.89523 3.42891
rclavicle -7.65321e-015 -1.03368e-014
rhumerus -35.2105 -19.5035 -74.2977
rradius 34.3034
rwrist 10.5339
rhand -16.3527 15.6519
rfingers 7.12502
rthumb 9.85992 -14.0973
lclavicle -7.65321e-015 -1.03368e-014
lhumerus -40.0259 12.3118 83.7659
lradius 46.4636
lwrist 3.08083
lhand -16.8589 24.2494
lfingers 7.12502
lthumb 9.37148 54.0211
rfemur -11.3487 1.07152 19.0367
rtibia 38.8091
rfoot -10.3235 1.97935
rtoes -1.14339
lfemur -16.6798 -0.672649 -21.4665
ltibia 36.0747
lfoot -7.087 1.16327
ltoes -10.4777
196
root -0.211865 17.6819 30.2568 0.629063 0.469402 -0.970491
lowerback 6.4314 0.631252 0.0131948
upperback -0.699989 0.975314 3.03864
thorax -4.3898 0.52179 3.04683
lowerneck -17.4136 -3.87466 -10.5504
upperneck 18.7266 -3.86182 6.19213
head 9.08708 -1.90337 3.36837
rclavicle -6.03808e-015 2.38542e-014
rhumerus -35.2701 -20.2618 -73.9409
rradius 33.4175
rwrist 10.9567
rhand -16.3546 15.2997
rfingers 7.12502
rthumb 9.85808 -14.4495
lclavicle -6.03808e-015 2.38542e-014
lhumerus -39.7523 12.0285 83.8062
lradius 47.2952
lwrist 3.6474
lhand -17.5906 22.6466
lfingers 7.12502
lthumb 8.66541 52.4487
rfemur -11.2663 0.863877 18.7732
rtibia 38.6962
rfoot -10.6094 1.41258
rtoes -0.79154
lfemur -16.4369 -0.445806 -21.7084
ltibia 36.0541
lfoot -7.64377 0.972765
ltoes -10.259
